<svg width="457" height="126" viewBox="0 0 457 126" fill="none" xmlns="http://www.w3.org/2000/svg">
<path d="M130.725 0H42.525L51.975 16.5L119 16.5L130.725 0Z" fill="#8B78FF"/>
<path d="M42.525 0C22.05 0 0 24.5189 0 47.6757V78.3243C0 101.481 22.05 126 42.525 126L51.975 110C29.475 110 18.975 91.7081 18.975 74.4324V51.5676C18.975 34.3652 29.6719 16.6542 51.975 16.5L42.525 0Z" fill="#62D8FF"/>
<path d="M37.8 47.6757C37.8 42.5676 40.635 32.3514 51.975 32.3514V16.5C29.6719 16.6542 18.975 34.3652 18.975 51.5676V74.4324C18.975 91.7081 29.475 110 51.975 110V93.6486C40.635 93.6486 37.8 83.4324 37.8 78.3243V47.6757Z" fill="#8B78FF"/>
<path d="M51.975 32.3514H130.725L119 16.5L51.975 16.5V32.3514Z" fill="#2E5BCB"/>
<path d="M130.725 32.3514V0L119 16.5L130.725 32.3514Z" fill="#230DAA"/>
<path d="M130.725 52.7838H63L75 64L112.5 64L130.725 52.7838Z" fill="#97E5FF"/>
<path d="M130.725 126V93.6486V52.7838L112.5 64V110L130.725 126Z" fill="#230DAA"/>
<path d="M42.525 126H130.725L112.5 110H51.975L42.525 126Z" fill="#46B5FF"/>
<path d="M96.075 93.6486H51.975V110H112.5L96.075 93.6486Z" fill="#1920CF"/>
<path d="M63 74.9189H96.075L112.5 64L75 64L63 74.9189Z" fill="#4C7EFF"/>
<path d="M63 52.7838V74.9189L75 64L63 52.7838Z" fill="#62D8FF"/>
<path d="M96.075 74.9189V93.6486L112.5 110V64L96.075 74.9189Z" fill="#97E5FF"/>
<path d="M184.275 0C163.8 0 141.75 24.5189 141.75 47.6757V78.3243C141.75 101.481 163.8 126 184.275 126L193.725 110C171.958 110 161.422 93.3483 160.758 76.6216L160.783 64L160.812 49.3784C161.871 33.0681 172.583 17.1462 193.725 17L184.275 0Z" fill="#62D8FF"/>
<path d="M267.75 0H184.275L193.725 17H256L267.75 0Z" fill="#8B78FF"/>
<path d="M193.725 32.3513H267.75L256 17H193.725V32.3513Z" fill="#2E5BCB"/>
<path d="M184.275 126H267.75L256 110H193.725L184.275 126Z" fill="#46B5FF"/>
<path d="M267.75 126V93.6486L256 110L267.75 126Z" fill="#170584"/>
<path d="M267.75 93.6486H193.725V110H256L267.75 93.6486Z" fill="#2E5BCB"/>
<path d="M193.725 93.6486C182.385 93.6486 179.55 83.4324 179.55 78.3243V76.6216L160.783 64L160.758 76.6216C161.422 93.3483 171.958 110 193.725 110V93.6486Z" fill="#8B78FF"/>
<path d="M179.55 76.6216H267.75L259 64H187H160.783L179.55 76.6216Z" fill="#1920CF"/>
<path d="M179.55 47.6757C179.55 42.5676 182.385 32.3513 193.725 32.3513V17C172.583 17.1462 161.871 33.0681 160.812 49.3784L160.783 64L179.55 49.3784V47.6757Z" fill="#4C7EFF"/>
<path d="M267.75 49.3784H179.55L160.783 64H187H259L267.75 49.3784Z" fill="#97E5FF"/>
<path d="M267.75 76.6216V49.3784L259 64L267.75 76.6216Z" fill="#2E5BCB"/>
<path d="M267.75 32.3513V0L256 17L267.75 32.3513Z" fill="#4C7EFF"/>
<path d="M281.925 126H318.15L300.5 113L281.925 126Z" fill="#2E5BCB"/>
<path d="M281.925 0V126L300.5 113V14.5L281.925 0Z" fill="#62D8FF"/>
<path d="M318.15 126V28.9459L300.5 14.5V113L318.15 126Z" fill="#6E56FF"/>
<path d="M318.15 28.9459H352.8L370.5 14.5H300.5L318.15 28.9459Z" fill="#4C7EFF"/>
<path d="M352.8 28.9459V126L370.5 113V14.5L352.8 28.9459Z" fill="#97E5FF"/>
<path d="M387.45 126V28.9459L370.5 14.5V113L387.45 126Z" fill="#8B78FF"/>
<path d="M352.8 126H387.45L370.5 113L352.8 126Z" fill="#2E5BCB"/>
<path d="M422.1 126H456.75L439.5 113L422.1 126Z" fill="#170584"/>
<path fill-rule="evenodd" clip-rule="evenodd" d="M422.1 44.2703L439.5 31.5C439.5 20.5 428.5 14.5 419 14.5L370.5 14.5L387.45 28.9459H406.35C418.95 28.9459 422.1 39.1622 422.1 44.2703Z" fill="#2E5BCB"/>
<path d="M422.1 44.2703V126L439.5 113V31.5L422.1 44.2703Z" fill="#97E5FF"/>
<path fill-rule="evenodd" clip-rule="evenodd" d="M281.925 0H416C447.5 0 456.75 14.5 456.75 42L439.5 31.5C439.5 20.5 428.5 14.5 419 14.5L370.5 14.5H300.5L281.925 0Z" fill="#8B78FF"/>
<path d="M456.75 126V42L439.5 31.5V113L456.75 126Z" fill="#1920CF"/>
</svg>
