<svg version="1.1" id="Capa_1" xmlns="http://www.w3.org/2000/svg" xmlns:xlink="http://www.w3.org/1999/xlink"
	 viewBox="0 0 180.736 180.736" xml:space="preserve">
		<path style="fill:#010002;" d="M90.368,0C40.455,0,0,40.455,0,90.368s40.455,90.368,90.368,90.368
			c49.901,0,90.368-40.449,90.368-90.368S140.281,0,90.368,0z M58.762,69.144h0.131c1.193-14.464,12.119-26.129,26.212-28.498
			v-3.765h4.606v-9.219c0-0.37,0.292-0.656,0.656-0.656s0.656,0.304,0.656,0.656v9.219h4.606v3.765
			c14.094,2.369,25.013,14.046,26.218,28.498h0.125c1.456,0,2.631,1.175,2.631,2.631c0,1.462-1.175,2.637-2.631,2.637H58.75
			c-1.456,0-2.631-1.175-2.631-2.637C56.124,70.337,57.3,69.144,58.762,69.144z M54.812,79.031h71.125c1.82,0,3.3,1.48,3.3,3.3
			c0,1.82-1.48,3.3-3.3,3.3h-3.324c0,0.048,0.03,0.095,0.03,0.125v14.219h-6.587V85.756c0-0.048,0.024-0.09,0.024-0.125h-3.121
			c0,0.048,0.024,0.095,0.024,0.125v14.219h-6.587V85.756c0-0.048,0.024-0.09,0.024-0.125h-3.121c0,0.048,0.03,0.095,0.03,0.125
			v14.219h-6.587V85.756c0-0.048,0.024-0.09,0.036-0.125H93.65c0,0.048,0.024,0.095,0.024,0.125v14.219h-6.587V85.756
			c0-0.048,0.024-0.09,0.024-0.125h-3.127c0.006,0.048,0.03,0.095,0.03,0.125v14.219h-6.587V85.756c0-0.048,0.024-0.09,0.03-0.125
			h-3.139c0.006,0.048,0.03,0.095,0.03,0.125v14.219H67.76V85.756c0-0.048,0.024-0.09,0.024-0.125h-3.127
			c0,0.048,0.024,0.095,0.024,0.125v14.219h-6.587V85.756c0-0.048,0.024-0.09,0.024-0.125H54.8c-1.82,0-3.294-1.48-3.294-3.3
			C51.518,80.511,52.986,79.031,54.812,79.031z M135.156,140.544c1.82,0,3.3,1.474,3.3,3.294s-1.48,3.3-3.3,3.3H45.587
			c-1.82,0-3.294-1.48-3.294-3.3s1.474-3.294,3.294-3.294h3.294v-30.3h-3.294c-1.82,0-3.294-1.468-3.294-3.294
			c0-1.82,1.474-3.3,3.294-3.3h89.569c1.82,0,3.3,1.48,3.3,3.3c0,1.826-1.48,3.294-3.3,3.294h-3.294v30.3H135.156z"/>
		<rect x="87.606" y="110.244" style="fill:#010002;" width="5.531" height="30.3"/>
		<rect x="58.099" y="110.244" style="fill:#010002;" width="5.531" height="30.3"/>
		<rect x="72.85" y="110.244" style="fill:#010002;" width="5.531" height="30.3"/>
		<rect x="102.356" y="110.244" style="fill:#010002;" width="5.531" height="30.3"/>
		<rect x="117.112" y="110.244" style="fill:#010002;" width="5.531" height="30.3"/>
</svg>
