<svg xmlns="http://www.w3.org/2000/svg" viewBox="0 0 20 20"><path fill="inherit" fill-rule="evenodd" d="M7.917 3.333a5.417 5.417 0 0 0-3.838 9.24.833.833 0 0 1-1.18 1.176 7.083 7.083 0 1 1 11.03-8.747 5.417 5.417 0 0 1 3.268 9.593.833.833 0 1 1-1.061-1.285 3.75 3.75 0 0 0-2.386-6.643 1.35 1.35 0 0 1-1.163-.662 5.414 5.414 0 0 0-4.67-2.672ZM10 9.167c.46 0 .833.373.833.833v5.488l1.911-1.91a.833.833 0 0 1 1.179 1.178l-3.334 3.333a.833.833 0 0 1-1.178 0l-3.334-3.333a.833.833 0 1 1 1.179-1.179l1.91 1.911V10c0-.46.374-.833.834-.833Z" clip-rule="evenodd"/></svg>
