<svg width="800" height="800" viewBox="0 0 800 800" fill="none" xmlns="http://www.w3.org/2000/svg">
<path fill-rule="evenodd" clip-rule="evenodd" d="M400 0C620.92 0 800 183.597 800 410.117C800 591.277 685.52 744.958 526.68 799.238C506.4 803.278 499.2 790.471 499.2 779.551C499.2 766.031 499.68 721.872 499.68 666.992C499.68 628.752 486.88 603.794 472.52 591.074C561.6 580.914 655.2 546.231 655.2 388.711C655.2 343.911 639.68 307.353 614 278.633C618.16 268.273 631.88 226.558 610.08 170.078C610.08 170.078 576.56 159.089 500.2 212.129C468.24 203.049 434 198.48 400 198.32C366 198.48 331.8 203.049 299.88 212.129C223.44 159.089 189.84 170.078 189.84 170.078C168.12 226.558 181.84 268.273 185.96 278.633C160.4 307.353 144.76 343.911 144.76 388.711C144.76 545.831 238.16 581.046 327 591.406C315.56 601.646 305.2 619.71 301.6 646.23C278.8 656.71 220.88 674.848 185.2 612.168C185.2 612.168 164.04 572.763 123.88 569.883C123.88 569.883 84.88 569.365 121.16 594.805C121.16 594.805 147.36 607.405 165.56 654.805C165.56 654.805 189.04 728.003 300.32 703.203C300.52 737.483 300.88 769.791 300.88 779.551C300.88 790.391 293.52 803.077 273.56 799.277C114.6 745.077 0 591.317 0 410.117C0 183.597 179.12 0 400 0Z" fill="black"/>
</svg>
