<svg width="16" height="16" viewBox="0 0 16 16" fill="none" xmlns="http://www.w3.org/2000/svg">
<path d="M4.71036 9.10529C5.18813 9.10529 5.62916 8.94609 5.98446 8.67054L3.06873 5.75586C2.79309 6.1049 2.63382 6.54576 2.63382 7.02952C2.6277 8.17455 3.55877 9.10529 4.71036 9.10529Z" fill="#0D8E74"/>
<path d="M13.3838 7.02366C13.3838 6.54603 13.2246 6.10516 12.9489 5.75L10.0332 8.66465C10.3824 8.94019 10.8234 9.09943 11.3073 9.09943C12.4528 9.10555 13.3838 8.17481 13.3838 7.02366Z" fill="#0D8E74"/>
<path d="M14.8543 3.85742L13.5618 5.14944C13.9906 5.66377 14.2479 6.31284 14.2479 7.03537C14.2479 8.65804 12.9309 9.97455 11.3076 9.97455C10.591 9.97455 9.93553 9.71736 9.421 9.28874L8.006 10.7032L6.59101 9.28874C6.07648 9.71736 5.42717 9.97455 4.70437 9.97455C3.0811 9.97455 1.76412 8.65804 1.76412 7.03537C1.76412 6.31896 2.02141 5.66377 2.4502 5.14944L1.78865 4.48813L1.15771 3.85742C0.422655 5.06983 0 6.48428 0 8.00288C0 12.4238 3.58339 15.9998 7.99988 15.9998C12.4163 15.9998 15.9997 12.4177 15.9997 8.00288C16.012 6.47816 15.5893 5.06371 14.8543 3.85742Z" fill="#0D8E74"/>
<path d="M13.795 2.47991C12.3433 0.955225 10.2851 0 8.00643 0C5.72774 0 3.67571 0.955225 2.21787 2.47991C2.02184 2.68811 1.83196 2.90856 1.6543 3.1351L8.00031 9.47876L14.3463 3.12898C14.187 2.90853 13.9972 2.68199 13.795 2.47991ZM8.00643 1.04095C9.88083 1.04095 11.6205 1.7635 12.9252 3.08L8.00643 7.99697L3.08766 3.08C4.39851 1.7635 6.13204 1.04095 8.00643 1.04095Z" fill="#0D8E74"/>
</svg>
