<svg width="16" height="16" viewBox="0 0 16 16" fill="none" xmlns="http://www.w3.org/2000/svg">
<rect width="16" height="16" rx="8" fill="#8247E5"/>
<path d="M10.5718 6.4451C10.389 6.35015 10.154 6.35015 9.94517 6.4451L8.48303 7.22849L7.49086 7.727L6.05483 8.51039C5.87206 8.60534 5.63708 8.60534 5.4282 8.51039L4.30548 7.89317C4.12272 7.79822 3.99217 7.60831 3.99217 7.39466V6.20772C3.99217 6.0178 4.09661 5.82789 4.30548 5.7092L5.4282 5.11573C5.61097 5.02077 5.84595 5.02077 6.05483 5.11573L7.17755 5.73294C7.36031 5.82789 7.49086 6.0178 7.49086 6.23145V7.01484L8.48303 6.49258V5.68546C8.48303 5.49555 8.37859 5.30564 8.16971 5.18694L6.08094 4.07122C5.89817 3.97626 5.66319 3.97626 5.45431 4.07122L3.31332 5.21068C3.10444 5.30564 3 5.49555 3 5.68546V7.91691C3 8.10682 3.10444 8.29674 3.31332 8.41543L5.4282 9.53116C5.61097 9.62611 5.84595 9.62611 6.05483 9.53116L7.49086 8.77151L8.48303 8.24926L9.91906 7.48961C10.1018 7.39466 10.3368 7.39466 10.5457 7.48961L11.6684 8.08309C11.8512 8.17804 11.9817 8.36795 11.9817 8.5816V9.76855C11.9817 9.95846 11.8773 10.1484 11.6684 10.2671L10.5718 10.8605C10.389 10.9555 10.154 10.9555 9.94517 10.8605L8.82245 10.2671C8.63969 10.1721 8.50914 9.9822 8.50914 9.76855V9.0089L7.51697 9.53116V10.3145C7.51697 10.5045 7.62141 10.6944 7.83029 10.8131L9.94517 11.9288C10.1279 12.0237 10.3629 12.0237 10.5718 11.9288L12.6867 10.8131C12.8695 10.7181 13 10.5282 13 10.3145V8.05935C13 7.86944 12.8956 7.67953 12.6867 7.56083L10.5718 6.4451Z" fill="white"/>
</svg>
