<svg width="512" height="512" viewBox="0 0 512 512" fill="none" xmlns="http://www.w3.org/2000/svg">
<path fill-rule="evenodd" clip-rule="evenodd" d="M46.8162 56H360.446V145.463H496V448.208H182.2C141.094 450.743 100.183 440.782 64.8439 419.634C48.7865 408.107 35.9079 392.706 27.4018 374.863C18.8977 357.02 15.0443 337.317 16.2008 317.585C16.07 302.532 18.3081 287.551 22.8342 273.194C24.2377 269.736 25.8862 266.382 27.7651 263.159C31.2635 254.685 36.0865 246.82 42.0515 239.858C44.9248 236.816 48.0556 234.028 51.4067 231.524C57.6748 225.961 64.5843 221.165 71.9858 217.237C76.9335 214.633 82.0472 212.36 87.2936 210.434C99.5805 205.965 112.208 202.495 125.051 200.059C174.035 190.195 285.268 190.195 359.934 190.195V145.463H46.8162V56ZM232.544 369.631H359.934V269.112H226.421C192.575 269.112 170.464 274.214 160.089 284.589C155.451 288.92 151.805 294.203 149.397 300.073C146.99 305.944 145.88 312.266 146.143 318.605C145.838 324.889 146.862 331.167 149.148 337.03C151.433 342.892 154.93 348.204 159.408 352.622C171.655 363.848 196.146 369.631 232.544 369.631Z" fill="black"/>
</svg>
